<svg xmlns="http://www.w3.org/2000/svg" viewBox="0 0 64 64">
  <defs>
    <linearGradient id="strictureMark" x1="0%" y1="0%" x2="100%" y2="100%">
      <stop offset="0%" stop-color="#0b6e5f" />
      <stop offset="100%" stop-color="#e25a2c" />
    </linearGradient>
  </defs>
  <path fill="url(#strictureMark)" d="M32 3 56 17v30L32 61 8 47V17L32 3Zm0 8.8L15.6 21v22L32 52.2 48.4 43V21L32 11.8Z"/>
  <path fill="#fffaf3" d="M19.8 39.2 26.3 33a10.6 10.6 0 0 1 3.5-2.2l8.5-2.9a2 2 0 0 0 1.2-2.6 2 2 0 0 0-2.5-1.2l-8.6 2.9a14.7 14.7 0 0 0-4.8 3l-6.6 6.3a2 2 0 1 0 2.8 2.9Zm24.4-14.4a2 2 0 0 0-2.8 0L34.8 31a10.6 10.6 0 0 1-3.5 2.2l-8.6 2.9a2 2 0 0 0 1.3 3.8l8.6-2.9a14.7 14.7 0 0 0 4.8-3l6.8-6.4a2 2 0 0 0 0-2.8Z"/>
</svg>
