<svg xmlns="http://www.w3.org/2000/svg" viewBox="0 0 1200 630" role="img" aria-labelledby="title desc">
  <title id="title">Stricture Splash</title>
  <desc id="desc">Stricture lineage and architecture enforcement splash graphic</desc>
  <defs>
    <linearGradient id="bg" x1="0" y1="0" x2="1" y2="1">
      <stop offset="0%" stop-color="#0f172a"/>
      <stop offset="100%" stop-color="#1d4ed8"/>
    </linearGradient>
    <linearGradient id="accent" x1="0" y1="0" x2="1" y2="1">
      <stop offset="0%" stop-color="#f97316"/>
      <stop offset="100%" stop-color="#fb923c"/>
    </linearGradient>
    <filter id="shadow" x="-20%" y="-20%" width="140%" height="140%">
      <feDropShadow dx="0" dy="8" stdDeviation="12" flood-color="#0b1222" flood-opacity="0.45"/>
    </filter>
  </defs>

  <rect width="1200" height="630" fill="url(#bg)"/>

  <circle cx="110" cy="90" r="140" fill="#1e3a8a" opacity="0.35"/>
  <circle cx="1110" cy="510" r="170" fill="#f97316" opacity="0.18"/>

  <rect x="70" y="70" width="1060" height="490" rx="18" fill="#0b1224" stroke="#29406d" stroke-width="2" opacity="0.92"/>

  <rect x="120" y="152" width="190" height="88" rx="10" fill="#111c33" stroke="#2c456f"/>
  <rect x="372" y="152" width="190" height="88" rx="10" fill="#111c33" stroke="#2c456f"/>
  <rect x="624" y="152" width="190" height="88" rx="10" fill="#111c33" stroke="#2c456f"/>
  <rect x="876" y="152" width="190" height="88" rx="10" fill="#111c33" stroke="#2c456f"/>

  <text x="145" y="188" font-family="ui-monospace, SFMono-Regular, Menlo, Consolas, monospace" font-size="17" fill="#cdd8f4">OpenAPI</text>
  <text x="401" y="188" font-family="ui-monospace, SFMono-Regular, Menlo, Consolas, monospace" font-size="17" fill="#cdd8f4">OpenTelemetry</text>
  <text x="654" y="188" font-family="ui-monospace, SFMono-Regular, Menlo, Consolas, monospace" font-size="17" fill="#cdd8f4">OpenLineage</text>
  <text x="918" y="188" font-family="ui-monospace, SFMono-Regular, Menlo, Consolas, monospace" font-size="17" fill="#cdd8f4">AsyncAPI</text>

  <path d="M215 240 L215 290" stroke="#6f89bb" stroke-width="3"/>
  <path d="M467 240 L467 290" stroke="#6f89bb" stroke-width="3"/>
  <path d="M719 240 L719 290" stroke="#6f89bb" stroke-width="3"/>
  <path d="M971 240 L971 290" stroke="#6f89bb" stroke-width="3"/>

  <rect x="310" y="300" width="580" height="124" rx="14" fill="#14264b" stroke="#3a63a7" stroke-width="2" filter="url(#shadow)"/>
  <text x="350" y="346" font-family="ui-sans-serif, -apple-system, Segoe UI, Roboto, Helvetica, Arial, sans-serif" font-size="34" font-weight="700" fill="#f8fbff">Stricture</text>
  <text x="520" y="346" font-family="ui-sans-serif, -apple-system, Segoe UI, Roboto, Helvetica, Arial, sans-serif" font-size="24" fill="#f97316" font-weight="700">Open Standard (SOS)</text>
  <text x="350" y="380" font-family="ui-monospace, SFMono-Regular, Menlo, Consolas, monospace" font-size="17" fill="#cbd9f8">lineage + invariants + deterministic release gates</text>

  <path d="M600 424 L600 470" stroke="#f97316" stroke-width="4"/>
  <path d="M600 470 L355 470" stroke="#f97316" stroke-width="4"/>
  <path d="M600 470 L845 470" stroke="#f97316" stroke-width="4"/>

  <rect x="170" y="470" width="370" height="64" rx="10" fill="#1a2e57" stroke="#3f6ab0"/>
  <rect x="660" y="470" width="370" height="64" rx="10" fill="#1a2e57" stroke="#3f6ab0"/>

  <text x="197" y="510" font-family="ui-monospace, SFMono-Regular, Menlo, Consolas, monospace" font-size="16" fill="#d6e2fb">drift classification + block/warn/override</text>
  <text x="695" y="510" font-family="ui-monospace, SFMono-Regular, Menlo, Consolas, monospace" font-size="16" fill="#d6e2fb">owner routing + escalation chain outputs</text>

  <text x="118" y="112" font-family="ui-sans-serif, -apple-system, Segoe UI, Roboto, Helvetica, Arial, sans-serif" font-size="42" font-weight="800" fill="#ffffff">Ship Fast. Stay Correct.</text>
  <text x="118" y="136" font-family="ui-monospace, SFMono-Regular, Menlo, Consolas, monospace" font-size="16" fill="#f3bb91">Multi-repo API safety for AI-accelerated engineering</text>
</svg>
